  <svg width="24" height="40" viewBox="0 0 24 40" fill="none" xmlns="http://www.w3.org/2000/svg">
    <path d="M11.9998 16V20M11.9998 24H12.0098M10.2898 10.86L1.81978 25C1.64514 25.3024 1.55274 25.6453 1.55177 25.9945C1.55079 26.3437 1.64127 26.6871 1.8142 26.9905C1.98714 27.2939 2.2365 27.5467 2.53748 27.7238C2.83847 27.9009 3.18058 27.9961 3.52978 28H20.4698C20.819 27.9961 21.1611 27.9009 21.4621 27.7238C21.7631 27.5467 22.0124 27.2939 22.1854 26.9905C22.3583 26.6871 22.4488 26.3437 22.4478 25.9945C22.4468 25.6453 22.3544 25.3024 22.1798 25L13.7098 10.86C13.5315 10.5661 13.2805 10.3231 12.981 10.1544C12.6814 9.98581 12.3435 9.89722 11.9998 9.89722C11.656 9.89722 11.3181 9.98581 11.0186 10.1544C10.7191 10.3231 10.468 10.5661 10.2898 10.86Z" stroke="#E6A602" stroke-width="2" stroke-linecap="round" stroke-linejoin="round" />
  </svg>
